<svg width="400" height="400" viewBox="0 0 400 400" fill="none" xmlns="http://www.w3.org/2000/svg">
<rect width="400" height="400" rx="20" fill="black"/>
<path fill-rule="evenodd" clip-rule="evenodd" d="M168.255 52.2923L195.548 25C100.952 27.3852 25 104.817 25 199.988C25 222.304 29.1762 243.645 36.7897 263.272L49.0725 250.989L49.0959 251.013L244.514 55.594C255.032 58.8293 265.06 63.1822 274.46 68.514L68.5707 274.403C68.5645 274.392 68.5582 274.381 68.552 274.37L28.3649 314.557L49.1557 335.348L76.9398 307.564L76.9743 307.598L301.923 82.6497L301.888 82.6152L315.813 68.6908C292.672 48.2715 264.092 33.8742 232.524 27.951L225.096 35.3794L224.949 35.2324L49.3792 210.802C49.1265 207.23 48.998 203.624 48.998 199.988C48.998 127.472 100.099 66.8913 168.255 52.2923ZM313.042 99.753L347.489 65.3056L368.319 86.1356L339.73 114.725L339.919 114.914L124.195 330.637C133.232 335.895 142.865 340.242 152.967 343.553L346.293 150.228L346.69 150.625L362.538 134.777C366.544 144.75 369.659 155.177 371.783 165.959L366.903 170.839L367.092 171.027L187.592 350.528C191.698 350.863 195.851 351.034 200.044 351.034C272.066 351.034 332.314 300.627 347.434 233.168L375 205.602C372.036 299.678 294.84 375.032 200.044 375.032C154.954 375.032 113.846 357.983 82.8145 329.98L99.8097 312.985C99.8871 313.054 99.9645 313.123 100.042 313.191L313.248 99.9854C313.179 99.9079 313.111 99.8304 313.042 99.753Z" fill="white"/>
</svg>
